<?xml version="1.0" encoding="UTF-8" standalone="no"?>
<svg
   width="180.00101mm"
   height="300.00101mm"
   viewBox="35 11 265.71579 502.0226"
   version="1.1"
   id="svg1"
   sodipodi:docname="logotip.svg"
   inkscape:version="1.3.2 (091e20e, 2023-11-25, custom)"
   xmlns:inkscape="http://www.inkscape.org/namespaces/inkscape"
   xmlns:sodipodi="http://sodipodi.sourceforge.net/DTD/sodipodi-0.dtd"
   xmlns:xlink="http://www.w3.org/1999/xlink"
   xmlns="http://www.w3.org/2000/svg"
   xmlns:svg="http://www.w3.org/2000/svg">
  <sodipodi:namedview
     id="namedview1"
     pagecolor="#ffffff"
     bordercolor="#000000"
     borderopacity="0.25"
     inkscape:showpageshadow="2"
     inkscape:pageopacity="0.0"
     inkscape:pagecheckerboard="0"
     inkscape:deskcolor="#d1d1d1"
     inkscape:document-units="mm"
     inkscape:zoom="0.39249606"
     inkscape:cx="225.47997"
     inkscape:cy="292.99657"
     inkscape:window-width="1427"
     inkscape:window-height="474"
     inkscape:window-x="-15"
     inkscape:window-y="212"
     inkscape:window-maximized="0"
     inkscape:current-layer="layer1"
     showguides="true"
     inkscape:clip-to-page="false"
     shape-rendering="auto"
     labelstyle="default" />
  <defs
     id="defs1">
    <linearGradient
       id="linearGradient1479"
       inkscape:collect="always">
      <stop
         style="stop-color:#000000;stop-opacity:1;"
         offset="0.51059324"
         id="stop1479" />
      <stop
         style="stop-color:#7d7d7d;stop-opacity:0;"
         offset="1"
         id="stop1480" />
    </linearGradient>
    <linearGradient
       id="linearGradient1476"
       inkscape:swatch="gradient">
      <stop
         style="stop-color:#3e3e3e;stop-opacity:1;"
         offset="0"
         id="stop1477" />
      <stop
         style="stop-color:#000000;stop-opacity:0;"
         offset="1"
         id="stop1478" />
    </linearGradient>
    <rect
       x="80.446754"
       y="72.737274"
       width="114.30143"
       height="43.910519"
       id="rect1470" />
    <inkscape:perspective
       sodipodi:type="inkscape:persp3d"
       inkscape:vp_x="0 : 153.52204 : 1"
       inkscape:vp_y="0 : 1000.0018 : 0"
       inkscape:vp_z="210.00004 : 153.52204 : 1"
       inkscape:persp3d-origin="105.00003 : 104.02204 : 1"
       id="perspective6" />
    <symbol
       id="playground"
       viewBox="0 0 530.95203 338.54059">
      <title
         id="title11">Playground</title>
      <path
         d="M 132.52314,6.6797728e-4 C 117.61826,0.06096798 103.59702,7.151608 96.111027,19.242858 c -11.43212,18.41534 -4.66661,43.57978 17.099613,55.5586 21.76406,11.97762 48.34468,5.17474 59.75195,-13.25 0.002,-0.002 0.005,-0.004 0.006,-0.006 0.001,-0.002 0.003,-0.004 0.004,-0.006 11.42725,-18.41484 4.65469,-43.57902 -17.10937,-55.55664 h -0.002 C 148.37984,1.865508 140.33064,-0.03120202 132.52333,3.8797728e-4 Z M 463.60126,67.207708 c -24.84002,0.0619 -42.85151,18.88762 -41.6582,40.529292 1.2e-4,0.002 -3e-5,0.006 0,0.008 1.6e-4,0.002 -7e-5,0.006 0,0.008 1.17104,21.64076 21.23029,40.36661 46.07031,40.30469 24.84249,-0.0619 42.84775,-18.89267 41.65039,-40.53711 -1.17099,-21.640752 -21.22253,-40.374452 -46.0625,-40.312502 z m -364.91797,2.66406 c -2.85463,-0.16877 -5.99067,1.05071 -9.40234,3.0918 -3.89904,2.33269 -8.18919,5.83215 -12.73633,10.12109 -9.094269,8.57788 -19.19464,20.328442 -28.64844,32.207032 -10.403889,13.07233 -19.907242,26.14758 -26.455078,35.40039 l -0.597656,-0.11719 a 17.263886,17.263886 0 0 0 -3.425781,-0.375 17.263886,17.263886 0 0 0 -3.25586,34.2461 l 66.503902,13.12109 c -7.764686,10.80282 -19.309153,26.65214 -30.187496,40.56445 -2.974629,3.80419 -4.317277,7.65262 -4.21289,11.10938 0.104282,3.45672 1.716406,6.45544 4.25,8.27734 5.067209,3.6438 13.445914,2.77456 21.453125,-4.87109 17.880341,-17.07292 34.656054,-36.16405 44.650394,-47.98633 l 141.5332,27.92383 -46.58008,97.83594 h 107.79102 l -45.0625,-94.64844 128.59961,25.37305 c 3.12815,15.23234 8.62529,39.58607 15.99609,62.74609 3.35807,10.55152 10.29281,15.33497 16.48633,14.57031 3.09675,-0.38234 5.94973,-2.2399 7.69922,-5.22265 1.7496,-2.98273 2.41604,-7.00209 1.63086,-11.76758 -3.11781,-18.92384 -5.88351,-40.5932 -7.46094,-53.54883 l 72.83985,14.37109 a 17.263886,17.263886 0 1 0 6.68164,-33.87109 l -6.04493,-1.19336 c -1.23974,-9.60963 -2.85042,-20.87998 -4.83203,-32.29492 -2.59695,-14.95972 -5.81892,-30.11659 -9.68359,-42.00781 -1.93235,-5.94561 -4.02025,-11.07402 -6.32227,-14.99219 -2.30204,-3.91816 -4.80227,-6.72286 -7.90039,-7.66602 -3.23165,-0.98383 -6.90096,0.0874 -10.73828,2.32422 -3.83732,2.23689 -7.95506,5.7006 -12.26367,10 -8.61719,8.59877 -17.98172,20.55445 -26.6875,32.70117 -8.24416,11.50269 -15.82605,23.09433 -21.58984,32.20118 L 125.32978,171.19013 c -0.69205,-10.64392 -1.76692,-24.0929 -3.44141,-37.80274 -1.81205,-14.83592 -4.29439,-29.82141 -7.73047,-41.501952 -1.71805,-5.84029 -3.66907,-10.85761 -5.96289,-14.66211 -2.29383,-3.80447 -4.99747,-6.50339 -8.304693,-7.1914 -0.39632,-0.0825 -0.79922,-0.13605 -1.20703,-0.16016 z"
         id="path12" />
    </symbol>
    <symbol
       id="theme_park"
       viewBox="0 0 482.44232 403.09543">
      <title
         id="title33">Theme park</title>
      <path
         d="M 241.22204,1.9255978e-8 A 14.104723,14.104723 0 0 0 227.11852,14.105472 14.104723,14.104723 0 0 0 241.22204,28.208992 14.104723,14.104723 0 0 0 255.3275,14.105472 14.104723,14.104723 0 0 0 241.22204,1.9255978e-8 Z M 29.66344,3.138672 C 21.737679,3.268943 14.110002,4.32155 6.78258,6.240234 a 8.9008896,8.9008896 0 1 0 4.509766,17.218758 c 23.861644,-6.24817 52.361614,-1.85599 88.488284,20.14453 36.12667,22.00051 79.26299,61.683438 130.19336,124.412108 51.80459,63.80539 95.31483,100.48496 134.78711,121.49023 39.47228,21.00527 74.77104,26.0176 108.33789,27.18164 a 8.9008896,8.9008896 0 1 0 0.61719,-17.78906 c -32.27788,-1.11935 -63.92198,-5.59154 -100.5918,-25.10547 -8.17044,-4.34792 -16.59898,-9.46476 -25.32422,-15.47461 a 10.001,10.001 0 0 0 2.86914,-0.69531 c 6.04803,-2.46185 13.67901,-5.2001 20.73633,-11.42774 7.05732,-6.22763 12.75864,-15.75907 15.86914,-29.41601 a 10.001,10.001 0 0 0 -3.02734,-9.625 l -7.89844,-7.16992 a 14.251425,14.251425 0 0 0 -12.21094,-21.4336 14.251425,14.251425 0 0 0 -8.41797,2.70508 l -8.24609,-7.48633 1.36523,-1.55273 a 20.252025,20.252025 0 0 0 -14.88281,-33.8418 20.252025,20.252025 0 0 0 -15.52344,7.08985 l -0.97265,1.10351 a 10.001,10.001 0 0 0 -5.81641,-2.15039 10.001,10.001 0 0 0 -1.33203,0.0391 c -14.07672,1.35883 -24.38302,8.11678 -30.36133,16.34766 -5.97831,8.23088 -8.46603,17.04297 -11.26367,24.06641 a 10.001,10.001 0 0 0 -0.29688,0.86914 c -7.96431,-8.92579 -16.15413,-18.54385 -24.59765,-28.94336 -4.63568,-5.70956 -9.19667,-11.1925 -13.71289,-16.54102 4.77071,-1.7173 9.98002,-3.99608 15.03906,-7.91601 7.44011,-5.76489 13.73581,-14.91298 17.71094,-28.34375 a 10.001,10.001 0 0 0 -2.40821,-9.798826 l -7.27734,-7.50781 1.24023,-1.24024 a 14.251425,14.251425 0 0 0 -10.35742,-24.46289 14.251425,14.251425 0 0 0 -9.79492,4.31055 l -0.92773,0.92773 -7.49219,-7.73047 4.77539,-4.77539 a 20.252025,20.252025 0 0 0 -14.7168,-34.76566 20.252025,20.252025 0 0 0 -13.92187,6.12695 l -4.35547,4.35547 a 10.001,10.001 0 0 0 -6.625,-2.52735 10.001,10.001 0 0 0 -0.33203,0.006 c -14.13473,0.45834 -24.85075,6.54409 -31.3418,14.37696 -4.50872,5.44075 -7.34458,11.25768 -9.74805,16.59961 -14.1426,-11.86818 -27.62113,-21.6438 -40.50585,-29.49038 C 79.907499,10.658964 53.440727,2.74786 29.663449,3.138674 Z m 236.51367,38.25977 a 14.104723,14.104723 0 0 0 -14.10547,14.10547 14.104723,14.104723 0 0 0 14.10547,14.10351 14.104723,14.104723 0 0 0 14.10547,-14.10351 14.104723,14.104723 0 0 0 -14.10547,-14.10547 z m 91.12696,76.388668 a 14.104723,14.104723 0 0 0 -1.40821,0.0195 14.104723,14.104723 0 0 0 -13.17773,14.97656 14.104723,14.104723 0 0 0 14.97656,13.17579 14.104723,14.104723 0 0 0 13.17578,-14.97461 14.104723,14.104723 0 0 0 -13.5664,-13.19727 z m 27.54883,39.85156 a 14.104723,14.104723 0 0 0 -1.41016,0.0195 14.104723,14.104723 0 0 0 -13.17578,14.97461 14.104723,14.104723 0 0 0 14.97461,13.17774 14.104723,14.104723 0 0 0 13.17773,-14.97656 14.104723,14.104723 0 0 0 -13.5664,-13.19532 z"
         id="path34" />
      <path
         opacity="0.5"
         d="m 29.413308,11.345422 v 76.96875 h -21.6875 v 19.999998 h 21.6875 v 48 h -21.6875 v 20 h 21.6875 v 48 h -21.6875 v 20 h 21.6875 v 48 h -21.6875 v 20 h 21.6875 v 48 h -21.6875 v 20 h 21.6875 v 22.78125 h 20 v -22.78125 h 48.000001 v 22.78125 h 20.000001 v -22.78125 h 46 v 22.78125 h 20 v -22.78125 h 48 v 22.78125 h 20 v -22.78125 h 48 v 22.78125 h 20 v -22.78125 h 48 v 22.78125 h 20 v -22.78125 h 48 v 22.78125 h 20 v -97.75 h -20 v 0.15625 l -26.375,-13.1875 h -21.625 v -4.96875 h -20 v 4.96875 h -48 v -48.96875 h -6.375 v -19.03125 h -61.625 v -52.96875 h -18.375 v -15.03125 h -49.625 V 97.345422 h -8.375 v -9.03125 h -57.625 V 37.345422 H 97.413309 v 50.96875 H 49.413308 v -76.96875 z m 20,96.968748 h 48.000001 v 48 H 49.413308 Z m 68.000002,0 h 46 v 48 h -46 z m -68.000002,68 h 48.000001 v 48 H 49.413308 Z m 68.000002,0 h 46 v 48 h -46 z m 66,0 h 48 v 48 h -48 z m -134,68 h 48 v 48 h -48 z m 68,0 h 46 v 48 h -46 z m 66,0 h 48 v 48 h -48 z m 68,0 h 48 v 48 h -48 z m -201.999999,68 h 48 v 48 h -48 z m 67.999999,0 h 46 v 48 h -46 z m 66,0 h 48 v 48 h -48 z m 68,0 h 48 v 48 h -48 z m 68,0 h 48 v 48 h -48 z m 68,0 h 48 v 48 h -48 z"
         id="path35" />
    </symbol>
    <symbol
       id="cattle_grid"
       viewBox="0 0 486.42728 178.99654">
      <title
         id="title4">Cattle grid</title>
      <path
         d="m 75.215586,9e-4 a 9.0009,9.0009 0 1 0 0,18 H 411.20778 a 9.0009,9.0009 0 1 0 0,-18 z m -20,45.4961 a 10.001,10.001 0 1 0 0,20 H 431.20974 a 10.001,10.001 0 1 0 0,-20 z M 35.213637,93.99504 a 12.50125,12.50125 0 1 0 0,25 H 451.21169 a 12.50125,12.50125 0 1 0 0,-25 z m -20,55 a 15.0015,15.0015 0 1 0 0,30 H 471.21364 a 15.0015,15.0015 0 1 0 0,-30 z"
         id="path4" />
    </symbol>
    <symbol
       id="castle2"
       viewBox="0 0 488.9444 327.60758">
      <title
         id="title13">Castle 2</title>
      <path
         d="m 3.3542043,7e-5 a 3.0003,3.0003 0 0 0 -3,2.98828 L 6.8825e-4,99.62897 a 3.0003,3.0003 0 0 0 0,0.004 v 0.0742 a 3.0003,3.0003 0 0 0 3.02539105,3.06445 L 32.51436,102.5099 v 222.09766 a 3.0003,3.0003 0 0 0 3,3 h 160.80468 a 3.0003,3.0003 0 0 0 3,-3 v -81.32227 h 90.57227 v 81.32227 a 3.0003,3.0003 0 0 0 3,3 h 160.58203 a 3.0003,3.0003 0 0 0 3,-3 V 102.5099 l 29.44531,0.26172 a 3.0003,3.0003 0 0 0 3.02149,-3.16015 v -0.006 L 488.59053,2.98828 a 3.0003,3.0003 0 0 0 -3,-2.98828 h -32.11719 a 3.0003,3.0003 0 0 0 -3,3 V 32.16015 H 424.35811 V 3 a 3.0003,3.0003 0 0 0 -3,-3 h -32.11719 a 3.0003,3.0003 0 0 0 -3,3 V 32.16015 H 360.12568 V 3 a 3.0003,3.0003 0 0 0 -3,-3 H 325.0085 a 3.0003,3.0003 0 0 0 -3,3 v 96.48242 a 3.0003,3.0003 0 0 0 3,3 h 29.11718 v 58.32227 H 328.0085 v -29.16016 a 3.0003,3.0003 0 0 0 -3,-3 h -32.11719 a 3.0003,3.0003 0 0 0 -3,3 v 29.16016 h -26.11524 v -29.16016 a 3.0003,3.0003 0 0 0 -3,-3 H 228.4792 a 3.0003,3.0003 0 0 0 -3,3 v 29.15625 h -26.16016 v -29.15625 a 3.0003,3.0003 0 0 0 -3,-3 h -32.16015 a 3.0003,3.0003 0 0 0 -3,3 v 29.15625 h -26.16211 v -58.31836 h 29.16211 a 3.0003,3.0003 0 0 0 3,-3 V 3 a 3.0003,3.0003 0 0 0 -3,-3 h -32.16211 a 3.0003,3.0003 0 0 0 -3,3 V 32.16015 H 102.83662 V 3 A 3.0003,3.0003 0 0 0 99.836624,0 h -32.16015 a 3.0003,3.0003 0 0 0 -3,3 V 32.16015 H 38.514352 V 3 a 3.0003,3.0003 0 0 0 -3,-3 H 3.3541963 Z"
         id="path14" />
    </symbol>
    <radialGradient
       inkscape:collect="always"
       xlink:href="#linearGradient1479"
       id="radialGradient1480"
       cx="37.062286"
       cy="35.74535"
       fx="37.062286"
       fy="35.74535"
       r="9.9779415"
       gradientTransform="matrix(2.6716596,0,0,0.26819429,-27.859494,57.016105)"
       gradientUnits="userSpaceOnUse" />
  </defs>
  <g
     inkscape:label="Слой 1"
     inkscape:groupmode="layer"
     id="layer1"
     transform="translate(-7.6082987,-56.978884)">
    <path
       style="opacity:0.5;fill:#c8b7b7;fill-opacity:1;fill-rule:nonzero;stroke:none;stroke-width:0.264583;paint-order:stroke markers fill"
       d="m 12.291385,67.978884 c 0.250845,9.155827 0.250845,9.030407 0.250845,9.030407 z"
       id="path1481" />
    <text
       xml:space="preserve"
       transform="matrix(0.77597936,0,0,0.59429697,-14.874297,14.050817)"
       id="text1470"
       style="font-style:normal;font-variant:normal;font-weight:normal;font-stretch:normal;font-size:34.4294px;font-family:Jokerman;-inkscape-font-specification:'Jokerman, Normal';font-variant-ligatures:normal;font-variant-caps:normal;font-variant-numeric:normal;font-variant-east-asian:normal;white-space:pre;shape-inside:url(#rect1470);display:inline;fill:#241c1c;fill-opacity:1;fill-rule:nonzero;paint-order:stroke markers fill" />
    <g
       id="g7"
       transform="matrix(0.77765015,0,0,0.8374978,-4.0937323,57.360426)">
      <g
         id="g4"
         transform="rotate(-0.27710786,735.24309,-1766.8876)">
        <use
           xlink:href="#castle2"
           width="488.9444"
           height="327.60757"
           style="fill:#b3b3b3;stroke:none"
           id="use1"
           transform="matrix(0.09143744,0,0,0.11857994,47.763431,22.092052)"
           inkscape:highlight-color="#351aa0" />
        <g
           id="g3">
          <ellipse
             style="opacity:0.5;fill:#c8b7b7;fill-opacity:1;fill-rule:nonzero;stroke:url(#radialGradient1480);stroke-width:0.703856;paint-order:stroke markers fill"
             id="path1478"
             cx="71.15831"
             cy="66.602798"
             rx="26.304224"
             ry="2.3256023" />
          <ellipse
             style="opacity:0.5;fill:#280b0b;fill-opacity:1;fill-rule:nonzero;stroke:none;stroke-width:0.703856;paint-order:stroke markers fill"
             id="path1483"
             cx="69.834381"
             cy="66.636124"
             rx="14.576228"
             ry="1.1628011" />
        </g>
      </g>
      <g
         id="g6">
        <g
           id="g5"
           transform="matrix(2.9328354,0,0,2.2461618,-22.989514,-46.772656)">
          <text
             xml:space="preserve"
             style="font-style:normal;font-variant:normal;font-weight:normal;font-stretch:normal;font-size:9.10944px;font-family:Jokerman;-inkscape-font-specification:'Jokerman, Normal';font-variant-ligatures:normal;font-variant-caps:normal;font-variant-numeric:normal;font-variant-east-asian:normal;fill:#241c1c;fill-opacity:1;fill-rule:nonzero;stroke-width:0.759119;paint-order:stroke markers fill"
             x="24.743759"
             y="40.518223"
             id="text4"
             transform="scale(0.85773422,1.1658623)"><tspan
               sodipodi:role="line"
               id="tspan4"
               style="font-style:normal;font-variant:normal;font-weight:normal;font-stretch:normal;font-size:9.10944px;font-family:Jokerman;-inkscape-font-specification:'Jokerman, Normal';font-variant-ligatures:normal;font-variant-caps:normal;font-variant-numeric:normal;font-variant-east-asian:normal;stroke-width:0.759119"
               x="24.743759"
               y="40.518223">Lazalki</tspan></text>
        </g>
      </g>
    </g>
  </g>
</svg>
